# xmcd
#
# Track frame offsets:
#	150
#	14114
#	28722
#	44059
#	58495
#	74412
#	89777
#	106456
#	118455
#	137505
#	157091
#	172518
#	190007
#	206158
#
# Disc length: 2946 seconds
#
# Revision: 0
# Processed by: cddbd v1.5.2PL0 Copyright (c) Steve Scherf et al.
# Submitted via: audiograbber 1.83.01
#
DISCID=db0b800e
DTITLE=Various Artist - Mr Music Country 09
DYEAR=2016
DGENRE=Country
TTITLE0=Tim McGraw - It's A Business Doing Pleasure With You
TTITLE1=Amy Dalley - Good Kind Of Crazy
TTITLE2=Clay Walker - Where Do I Go From You
TTITLE3=Jo Dee Messina - I'm Alright
TTITLE4=Blue County - Nothin' But Cowboy Boots
TTITLE5=Tamara Walker - Didn't We Love
TTITLE6=Trini Triggs - Heaven On Earth
TTITLE7=Donovan Chapman - House Like That
TTITLE8=The Judds - Grandpa (Tell Me 'Bout The Good Old Days)
TTITLE9=Smokin' Armadillos - I'm A Cowboy
TTITLE10=Sawer Brown - My Baby's Gone
TTITLE11=Leann Rimes - Soon
TTITLE12=Lee Brice - Upper Middle Class White Trash
TTITLE13=Steve Holy - Men Buy The Drinks (Girls Call The Shots)
EXTD=
EXTT0=
EXTT1=
EXTT2=
EXTT3=
EXTT4=
EXTT5=
EXTT6=
EXTT7=
EXTT8=
EXTT9=
EXTT10=
EXTT11=
EXTT12=
EXTT13=
PLAYORDER=
